<?xml version="1.0" encoding="utf-8"?>
<!-- Generator: Adobe Illustrator 26.1.0, SVG Export Plug-In . SVG Version: 6.00 Build 0)  -->
<svg version="1.1" id="Layer_1" xmlns="http://www.w3.org/2000/svg" xmlns:xlink="http://www.w3.org/1999/xlink" x="0px" y="0px"
	 viewBox="0 0 20 20" style="enable-background:new 0 0 20 20;" xml:space="preserve">
<style type="text/css">
	.st0{fill:#F2D9BF;}
</style>
<g id="Icon_x2F_Instagram_x5F_black" transform="translate(165.000000, 130.000000)">
	<path id="Combined-Shape" class="st0" d="M-165-120c0-5.5,4.5-10,10-10s10,4.5,10,10s-4.5,10-10,10S-165-114.5-165-120z
		 M-155-125.3c-1.4,0-1.6,0-2.2,0c-0.6,0-1,0.1-1.3,0.2c-0.4,0.1-0.6,0.3-0.9,0.6s-0.5,0.6-0.6,0.9s-0.2,0.7-0.2,1.3
		c0,0.6,0,0.8,0,2.2s0,1.6,0,2.2s0.1,1,0.2,1.3c0.1,0.4,0.3,0.6,0.6,0.9s0.6,0.5,0.9,0.6c0.3,0.1,0.7,0.2,1.3,0.2s0.8,0,2.2,0
		s1.6,0,2.2,0c0.6,0,1-0.1,1.3-0.2c0.4-0.1,0.6-0.3,0.9-0.6c0.3-0.3,0.5-0.6,0.6-0.9s0.2-0.7,0.2-1.3c0-0.6,0-0.8,0-2.2s0-1.6,0-2.2
		s-0.1-1-0.2-1.3c-0.1-0.4-0.3-0.6-0.6-0.9s-0.6-0.5-0.9-0.6c-0.3-0.1-0.7-0.2-1.3-0.2C-153.4-125.3-153.6-125.3-155-125.3
		L-155-125.3z"/>
	<path id="Combined-Shape_1_" class="st0" d="M-155.5-124.4c0.1,0,0.3,0,0.5,0c1.4,0,1.6,0,2.2,0c0.5,0,0.8,0.1,1,0.2
		s0.4,0.2,0.6,0.4c0.2,0.2,0.3,0.4,0.4,0.6c0.1,0.2,0.2,0.5,0.2,1c0,0.6,0,0.7,0,2.2c0,1.4,0,1.6,0,2.2c0,0.5-0.1,0.8-0.2,1
		c-0.1,0.3-0.2,0.4-0.4,0.6s-0.4,0.3-0.6,0.4c-0.2,0.1-0.5,0.2-1,0.2c-0.6,0-0.7,0-2.2,0s-1.6,0-2.2,0c-0.5,0-0.8-0.1-1-0.2
		s-0.4-0.2-0.6-0.4s-0.3-0.4-0.4-0.6c-0.1-0.2-0.2-0.5-0.2-1c0-0.6,0-0.7,0-2.2s0-1.6,0-2.2c0-0.5,0.1-0.8,0.2-1
		c0.1-0.2,0.2-0.4,0.4-0.6s0.4-0.3,0.6-0.4c0.2-0.1,0.5-0.2,1-0.2S-156.5-124.4-155.5-124.4L-155.5-124.4L-155.5-124.4z
		 M-152.2-123.5c-0.4,0-0.6,0.3-0.6,0.6s0.3,0.6,0.6,0.6s0.6-0.3,0.6-0.6C-151.5-123.2-151.8-123.5-152.2-123.5L-152.2-123.5z
		 M-155-122.7c-1.5,0-2.7,1.2-2.7,2.7s1.2,2.7,2.7,2.7s2.7-1.2,2.7-2.7S-153.5-122.7-155-122.7L-155-122.7z"/>
	<path id="Shape" class="st0" d="M-155-121.8c1,0,1.8,0.8,1.8,1.8s-0.8,1.8-1.8,1.8s-1.8-0.8-1.8-1.8S-156-121.8-155-121.8
		L-155-121.8z"/>
</g>
</svg>
