<?xml version="1.0" encoding="utf-8"?>
<!-- Generator: Adobe Illustrator 16.0.0, SVG Export Plug-In . SVG Version: 6.00 Build 0)  -->
<!DOCTYPE svg PUBLIC "-//W3C//DTD SVG 1.1//EN" "http://www.w3.org/Graphics/SVG/1.1/DTD/svg11.dtd">
<svg version="1.1" id="Layer_1" xmlns="http://www.w3.org/2000/svg" xmlns:xlink="http://www.w3.org/1999/xlink" x="0px" y="0px"
	 width="20px" height="20px" viewBox="0 0 20 20" enable-background="new 0 0 20 20" xml:space="preserve">
<g id="Icon_x2F_Youtube" transform="translate(300.000000, 130.000000)">
	<path id="Combined-Shape" fill="#FFF8A3" d="M-300-120c0-5.523,4.477-10,10-10c5.523,0,10,4.477,10,10c0,5.523-4.477,10-10,10
		C-295.523-110-300-114.477-300-120z M-284.891-122.47c-0.121-0.471-0.482-0.842-0.941-0.968c-0.832-0.229-4.168-0.229-4.168-0.229
		s-3.335,0-4.167,0.229c-0.459,0.126-0.82,0.497-0.943,0.968c-0.223,0.854-0.223,2.636-0.223,2.636s0,1.783,0.223,2.636
		c0.123,0.472,0.484,0.843,0.943,0.97C-293.335-116-290-116-290-116s3.336,0,4.168-0.229c0.459-0.127,0.82-0.498,0.941-0.97
		c0.225-0.854,0.225-2.636,0.225-2.636S-284.666-121.615-284.891-122.47z"/>
	<polygon id="Fill-2" fill="#FFF8A3" points="-291,-118 -291,-121.333 -288.334,-119.667 	"/>
</g>
</svg>
