<?xml version="1.0" encoding="utf-8"?>
<!-- Generator: Adobe Illustrator 26.1.0, SVG Export Plug-In . SVG Version: 6.00 Build 0)  -->
<svg version="1.1" id="Layer_1" xmlns="http://www.w3.org/2000/svg" xmlns:xlink="http://www.w3.org/1999/xlink" x="0px" y="0px"
	 viewBox="0 0 20 20" style="enable-background:new 0 0 20 20;" xml:space="preserve">
<style type="text/css">
	.st0{fill:#F2D9BF;}
</style>
<g id="Icon_x2F_Youtube" transform="translate(300.000000, 130.000000)">
	<path id="Combined-Shape" class="st0" d="M-300-120c0-5.52,4.48-10,10-10s10,4.48,10,10s-4.48,10-10,10S-300-114.48-300-120z
		 M-284.89-122.47c-0.12-0.47-0.48-0.84-0.94-0.97c-0.83-0.23-4.17-0.23-4.17-0.23s-3.33,0-4.17,0.23c-0.46,0.13-0.82,0.5-0.94,0.97
		c-0.22,0.85-0.22,2.64-0.22,2.64s0,1.78,0.22,2.64c0.12,0.47,0.48,0.84,0.94,0.97C-293.33-116-290-116-290-116s3.34,0,4.17-0.23
		c0.46-0.13,0.82-0.5,0.94-0.97c0.23-0.85,0.23-2.64,0.23-2.64S-284.67-121.61-284.89-122.47z"/>
	<polygon id="Fill-2" class="st0" points="-291,-118 -291,-121.33 -288.33,-119.67 	"/>
</g>
</svg>
